<?xml version="1.0" encoding="UTF-8" standalone="no"?>
<!-- Created with Inkscape (http://www.inkscape.org/) -->

<svg
   version="1.1"
   id="svg1"
   width="2499.8513"
   height="600.41211"
   viewBox="0 0 2499.8513 600.41211"
   sodipodi:docname="alarge-camera-2.svg"
   inkscape:version="1.4.2 (f4327f4, 2025-05-13)"
   xml:space="preserve"
   xmlns:inkscape="http://www.inkscape.org/namespaces/inkscape"
   xmlns:sodipodi="http://sodipodi.sourceforge.net/DTD/sodipodi-0.dtd"
   xmlns="http://www.w3.org/2000/svg"
   xmlns:svg="http://www.w3.org/2000/svg"><defs
     id="defs1"><rect
       x="612"
       y="424"
       width="896"
       height="380"
       id="rect1" /><clipPath
       clipPathUnits="userSpaceOnUse"
       id="clipPath15"><g
         inkscape:label="Clip"
         id="use15"
         style="display:inline;mix-blend-mode:normal;fill:#e30016;fill-opacity:1" /></clipPath></defs><sodipodi:namedview
     id="namedview1"
     pagecolor="#ffffff"
     bordercolor="#000000"
     borderopacity="0.25"
     inkscape:showpageshadow="2"
     inkscape:pageopacity="0.0"
     inkscape:pagecheckerboard="0"
     inkscape:deskcolor="#d1d1d1"
     showgrid="false"
     inkscape:zoom="0.25"
     inkscape:cx="532"
     inkscape:cy="76"
     inkscape:window-width="1920"
     inkscape:window-height="1111"
     inkscape:window-x="-9"
     inkscape:window-y="-9"
     inkscape:window-maximized="1"
     inkscape:current-layer="g16" /><g
     inkscape:groupmode="layer"
     id="layer1"
     inkscape:label="Logo"
     style="display:inline;opacity:1"
     transform="matrix(1,0,-0.01930667,1,-119.09534,-81.736508)"><g
       id="g16"><ellipse
         style="display:inline;fill:#e30016;stroke-width:0.763667"
         id="path8"
         cx="862.40448"
         cy="265.3288"
         transform="matrix(1,0,0.01930307,0.99981368,0,0)"
         rx="183.54285"
         ry="183.57706" /><ellipse
         style="display:inline;fill:#e30016;stroke-width:0.763667"
         id="ellipse8"
         cx="1256.3801"
         cy="265.3288"
         transform="matrix(1,0,0.01930307,0.99981368,0,0)"
         rx="183.54285"
         ry="183.57706" /><ellipse
         style="display:inline;fill:#e30016;stroke-width:0.763667"
         id="ellipse9"
         cx="1644.6666"
         cy="265.3288"
         transform="matrix(1,0,0.01930307,0.99981368,0,0)"
         rx="183.54285"
         ry="183.57706" /><ellipse
         style="display:inline;fill:#e30016;stroke-width:0.763667"
         id="ellipse10"
         cx="2039.9124"
         cy="265.3288"
         transform="matrix(1,0,0.01930307,0.99981368,0,0)"
         rx="183.54285"
         ry="183.57706" /><ellipse
         style="display:inline;fill:#e30016;stroke-width:0.763667"
         id="ellipse11"
         cx="2435.158"
         cy="265.3288"
         transform="matrix(1,0,0.01930307,0.99981368,0,0)"
         rx="183.54285"
         ry="183.57706" /><path
         id="path7"
         mask="none"
         style="display:inline;opacity:1;mix-blend-mode:normal;fill:#e30016;fill-opacity:1;stroke-width:0.896509"
         d="M 304.818,186.38256 A 252.4343,252.48134 0 0 0 119.09534,429.79315 252.4343,252.48134 0 0 0 371.52894,682.27574 252.4343,252.48134 0 0 0 623.96448,429.79315 252.4343,252.48134 0 0 0 617.15393,373.45648 183.03999,183.0741 0 0 1 469.04847,449.40813 183.03999,183.0741 0 0 1 286.00745,266.33496 183.03999,183.0741 0 0 1 304.818,186.38256 Z"
         transform="matrix(1,0,0.01930307,0.99981368,0,0)" /><path
         d="m 535.09977,249.6454 c -9.41149,3.45216 -19.2357,6.49476 -29.41446,9.12781 -13.91401,3.74442 -22.74191,7.48922 -26.37062,11.11664 -3.79874,3.80316 -5.62361,8.07432 -5.53098,12.87223 0.10618,5.49972 2.09937,9.94653 5.92376,13.45695 3.88093,3.45215 9.46313,5.20766 16.80284,5.20766 7.68683,0 14.75919,-1.87251 21.3335,-5.61702 6.5151,-3.80316 11.10717,-8.42533 13.77729,-13.80834 2.6689,-5.44136 3.86162,-12.52113 3.69443,-21.18055 z m -60.46759,-36.68546 -65.96325,-7.02112 c 2.26048,-11.64348 5.66652,-20.82926 10.21904,-27.49938 4.55251,-6.67012 11.14487,-12.46249 19.89231,-17.3774 6.23085,-3.56916 14.90454,-6.31912 25.90599,-8.25006 11.00146,-1.93057 22.94558,-2.92532 35.83368,-2.92532 20.63281,0 37.30012,1.1701 49.8286,3.51071 12.58654,2.3403 23.14223,7.25521 31.60804,14.68579 5.99446,5.14901 10.75825,12.40423 14.34998,21.82402 3.53489,9.47853 5.38388,18.43059 5.54993,27.03157 l 1.55211,80.39213 c 0.16492,8.54232 0.87276,15.2708 2.00676,20.12745 1.19196,4.85626 3.62337,11.05828 7.41015,18.60586 h -64.67181 c -2.6912,-4.68082 -4.43586,-8.24997 -5.29273,-10.70728 -0.85648,-2.45731 -1.68221,-6.31912 -2.59301,-11.58474 -8.84556,8.83478 -17.74054,15.09554 -26.56854,18.83996 -12.09737,5.03191 -26.20833,7.54796 -42.33297,7.54796 -21.44166,0 -37.83668,-5.03201 -49.18536,-15.09554 -11.28976,-10.00518 -17.07726,-22.4094 -17.36193,-37.15385 -0.26772,-13.86669 3.50094,-25.21743 11.36243,-34.11114 7.86075,-8.95169 22.47048,-15.56354 43.94399,-19.89306 25.79038,-5.26592 42.47948,-8.95208 50.12536,-11.05838 7.58821,-2.10621 15.68301,-4.91491 24.17105,-8.30833 -0.16606,-8.60097 -2.015,-14.56869 -5.54948,-18.02085 -3.59104,-3.39371 -9.75087,-5.14891 -18.59349,-5.14891 -11.26984,0 -19.6717,1.8722 -25.2655,5.50001 -4.33689,2.86695 -7.81635,8.24968 -10.38135,16.0899 z"
         style="display:inline;opacity:1;fill:#ffffff;fill-rule:evenodd;stroke-width:0.967749"
         id="path30" /><path
         d="m 830.69426,131.74332 h 69.42469 l 4.87311,252.39973 h -69.42481 z"
         style="display:inline;opacity:1;fill:#ffffff;fill-rule:evenodd;stroke-width:1.01577"
         id="path35" /><path
         d="m 1287.6507,260.98401 c -9.4928,3.48188 -19.4016,6.55053 -29.668,9.20625 -14.0339,3.77677 -22.9381,7.55376 -26.5982,11.21272 -3.8315,3.83583 -5.6719,8.14386 -5.5785,12.98303 0.1071,5.5473 2.1173,10.0324 5.9745,13.57314 3.9147,3.48188 9.545,5.2523 16.9481,5.2523 7.753,0 14.8865,-1.88845 21.5172,-5.66532 6.5713,-3.83595 11.2029,-8.49803 13.8961,-13.92741 2.692,-5.48823 3.895,-12.62898 3.7265,-21.36304 z m -60.9888,-37.0017 -66.532,-7.08179 c 2.2798,-11.74374 5.715,-21.00897 10.3069,-27.73659 4.5918,-6.72759 11.241,-12.5699 20.0639,-17.52719 6.2844,-3.59989 15.0331,-6.37344 26.1293,-8.32095 11.0963,-1.9475 23.1435,-2.95073 36.1426,-2.95073 20.8106,0 37.6217,1.1803 50.2584,3.54084 12.695,2.36062 23.3417,7.31771 31.8806,14.8126 6.046,5.19325 10.8507,12.51087 14.4735,22.01222 3.5655,9.56021 5.4301,18.58939 5.5976,27.2645 l 1.5656,81.08518 c 0.1664,8.61615 0.8804,15.40272 2.0242,20.30086 1.202,4.89822 3.6546,11.15364 7.4739,18.76646 h -65.2293 c -2.7142,-4.72114 -4.4743,-8.32094 -5.3383,-10.79949 -0.8639,-2.47863 -1.6968,-6.37355 -2.6154,-11.68491 -8.9218,8.91117 -17.8935,15.22575 -26.7975,19.00263 -12.2017,5.07522 -26.4345,7.61272 -42.698,7.61272 -21.6265,0 -38.1629,-5.07512 -49.6097,-15.22554 -11.3869,-10.09146 -17.2244,-22.60231 -17.5115,-37.47388 -0.2701,-13.98637 3.531,-25.43513 11.4604,-34.40524 7.9284,-9.02917 22.6644,-15.69772 44.3231,-20.06482 26.0124,-5.31125 42.8454,-9.02906 50.5575,-11.15355 7.6536,-2.12458 15.8181,-4.95718 24.3793,-8.38 -0.1674,-8.67512 -2.0324,-14.6946 -5.5973,-18.17626 -3.6219,-3.42293 -9.8351,-5.19335 -18.7536,-5.19335 -11.3673,0 -19.8416,1.88855 -25.4834,5.54729 -4.3745,2.89179 -7.8838,8.32106 -10.4708,16.22899 z"
         style="display:inline;opacity:1;fill:#ffffff;fill-rule:evenodd;stroke-width:1.02006"
         id="path34" /><path
         d="m 1594.2674,177.55042 h 64.9995 l 0.5794,30.01275 c 6.0398,-12.97205 12.3319,-21.93459 18.877,-26.82857 6.5453,-4.89408 14.7097,-7.37064 24.4947,-7.37064 10.2507,0 21.496,3.24309 33.793,9.67015 l -20.5242,50.11951 c -8.2213,-3.47883 -14.7775,-5.18874 -19.5534,-5.18874 -9.0859,0 -16.0594,3.83259 -20.9225,11.37996 -6.9567,10.73155 -10.1808,30.77929 -9.6139,60.14352 l 1.1873,61.49957 h -69.7753 z"
         style="display:inline;opacity:1;fill:#ffffff;fill-rule:evenodd;stroke-width:1.0192"
         id="path33" /><path
         d="m 2005.7911,239.1868 c 0.2365,12.25265 2.994,21.34683 8.2715,27.22805 5.2773,5.8813 12.1127,8.87637 20.504,8.87637 7.9611,0 14.6249,-3.10398 19.8863,-9.20309 5.3151,-6.09913 7.8259,-15.35671 7.5883,-27.66377 -0.2386,-12.36155 -3.2714,-21.78254 -9.0457,-28.31729 -5.7741,-6.53475 -12.7762,-9.80212 -21.0061,-9.80212 -8.1762,0 -14.6807,2.99506 -19.4063,8.98528 -4.7793,5.99021 -7.0602,16.01014 -6.792,29.89657 z m 58.7675,-82.12022 h 60.0839 l 3.089,159.99263 0.3064,7.51501 c 0.205,10.61895 -1.8587,20.74779 -6.1371,30.38659 -4.2786,9.63881 -10.0452,17.42603 -17.3537,23.36174 -7.3074,5.99021 -16.6377,10.29225 -27.9371,12.90618 -11.352,2.66833 -24.3968,4.02971 -39.0816,4.02971 -33.6191,0 -56.8478,-5.11887 -69.5787,-15.3566 -12.7298,-10.18335 -19.2872,-23.85187 -19.6173,-40.95117 -0.042,-2.17822 0.011,-5.00996 0.1556,-8.65856 l 62.3744,7.18818 c 1.6735,5.88132 4.1718,9.91103 7.4962,12.14374 4.7967,3.26748 10.7462,4.95556 17.9003,4.95556 9.252,0 16.0888,-2.50493 20.5642,-7.51489 4.4756,-5.00997 6.5665,-13.72302 6.3256,-26.19349 l -0.4951,-25.64895 c -6.1483,7.5149 -12.3356,13.01509 -18.563,16.44587 -9.7954,5.28218 -20.3944,7.95061 -31.8517,7.95061 -22.3769,0 -40.6419,-9.91111 -54.7939,-29.67876 -10.0073,-14.04964 -15.2607,-32.61932 -15.7055,-55.65423 -0.5098,-26.4113 5.3955,-46.50576 17.7156,-60.33769 12.3737,-13.83193 28.7001,-20.7478 49.0867,-20.7478 13.0711,0 23.8184,2.23272 32.3498,6.69816 8.5851,4.46534 16.6353,11.87142 24.1505,22.21817 z"
         style="display:inline;opacity:1;fill:#ffffff;fill-rule:evenodd;stroke-width:0.941279"
         id="path32" /><path
         d="m 2476.2634,248.94809 c -1.6735,-13.72462 -5.5014,-23.52787 -11.4835,-29.40984 -6.0423,-5.94133 -13.8464,-8.91202 -23.4711,-8.91202 -11.1507,0 -19.9251,4.51537 -26.4435,13.4274 -4.1177,5.58497 -6.6579,13.84345 -7.5594,24.89446 z m 71.7841,33.92512 h -140.2628 c 1.4527,11.40748 4.6673,19.84433 9.5874,25.4292 6.9039,8.02072 15.8425,12.00148 26.6996,12.00148 6.8665,0 13.4063,-1.72306 19.5008,-5.22842 3.7722,-2.19832 7.747,-6.06015 11.9822,-11.64501 l 69.0814,6.41662 c -10.2047,18.59646 -22.624,31.90516 -37.3747,39.98546 -14.752,8.02083 -36.036,12.06093 -63.9123,12.06093 -24.1793,0 -43.2606,-3.44598 -57.3025,-10.33789 -13.9833,-6.89207 -25.6982,-17.88353 -35.0848,-32.91529 -9.3867,-15.03165 -14.3051,-32.67745 -14.6974,-52.99695 -0.5576,-28.87511 8.1456,-52.28405 26.0533,-70.10824 17.9653,-17.88354 43.0276,-26.85493 75.247,-26.85493 26.1157,0 46.8517,4.0402 62.0892,12.06093 15.2951,7.96147 27.0812,19.60659 35.2379,34.75705 8.2164,15.20984 12.5305,34.99471 13.0007,59.35433 z"
         style="display:inline;opacity:1;fill:#ffffff;fill-rule:evenodd;stroke-width:1.02697"
         id="path31" /><path
         d="m 674.26016,608.31249 q -16.17435,0 -28.47128,-7.75482 -12.18616,-7.86561 -19.05471,-21.60273 -6.75778,-13.73711 -6.75778,-31.57321 0,-17.94688 6.75778,-31.79478 6.86855,-13.8479 19.05471,-21.71351 12.29693,-7.8656 28.47128,-7.8656 9.97049,0 18.39001,3.10193 8.53031,2.99114 14.95574,8.5303 6.5362,5.42838 10.63518,12.85085 4.09898,7.42248 5.3176,16.28514 h -19.05471 q -0.99705,-5.20682 -3.43428,-9.52736 -2.43723,-4.32055 -6.31465,-7.42247 -3.76663,-3.21272 -8.86265,-4.98525 -5.09603,-1.77253 -11.63224,-1.77253 -10.96754,0 -18.94393,5.53916 -7.8656,5.42838 -12.07537,15.39887 -4.20976,9.97048 -4.20976,23.37525 0,13.29399 4.20976,23.15369 4.20977,9.85971 12.07537,15.28808 7.86561,5.42838 18.94393,5.42838 6.53621,0 11.52145,-1.66175 4.98525,-1.66175 8.53031,-4.76368 3.65585,-3.21271 6.09308,-7.53325 2.43723,-4.43133 3.76663,-9.74893 h 19.38706 q -1.21862,8.64109 -5.3176,16.06357 -4.09898,7.42247 -10.63518,12.96163 -6.53621,5.53916 -15.06652,8.64109 -8.41952,3.10193 -18.27923,3.10193 z m 107.12736,-0.88626 q -11.63224,0 -20.82724,-3.9882 -9.19501,-3.98819 -14.62338,-11.8538 -5.3176,-7.97639 -5.3176,-19.60863 0,-10.08127 3.87741,-16.39591 3.9882,-6.31464 10.52441,-9.85971 6.64699,-3.65584 14.95573,-5.53916 8.41952,-1.88331 17.1714,-2.99114 11.1891,-1.55097 17.61453,-2.32645 6.42542,-0.77548 9.08422,-2.54801 2.76958,-1.77254 2.76958,-6.20386 v -1.10784 q 0,-6.42542 -3.10193,-11.29988 -2.99115,-4.98525 -8.86266,-7.75483 -5.76072,-2.88036 -13.95868,-2.88036 -8.08717,0 -14.40182,2.76958 -6.20386,2.6588 -9.97049,7.31169 -3.65584,4.6529 -4.09897,10.52441 h -19.1655 q 0.55392,-10.74598 6.64699,-19.05472 6.09308,-8.41952 16.61748,-13.29398 10.52441,-4.87446 24.37231,-4.87446 10.19205,0 18.39001,2.76958 8.30874,2.76958 14.06947,7.86561 5.87151,5.09602 8.97344,12.18615 3.10193,7.09012 3.10193,15.73121 v 80.65018 h -18.61158 v -16.61748 h -0.44313 q -2.10488,4.20976 -6.20386,8.5303 -4.09898,4.20976 -11.07832,7.09013 -6.86856,2.76958 -17.50375,2.76958 z m 2.6588,-16.83905 q 11.52145,0 18.72236,-4.09898 7.20091,-4.20976 10.5244,-10.85675 3.3235,-6.64699 3.3235,-14.29103 v -14.62339 q -1.10783,0.99705 -4.09898,1.88332 -2.88036,0.88626 -7.20091,1.77253 -4.20976,0.77548 -9.195,1.55096 -4.87446,0.77549 -9.85971,1.44018 -6.75777,0.88627 -12.85085,3.10193 -5.98229,2.10489 -9.74892,6.09308 -3.76663,3.87741 -3.76663,10.5244 0,5.42838 2.88036,9.41658 2.99115,3.87741 8.41953,5.98229 5.42837,2.10488 12.85085,2.10488 z m 79.09921,15.06652 V 488.66663 h 18.39001 v 23.92918 h -2.32645 q 3.43428,-8.53031 8.97344,-14.29104 5.64995,-5.87151 12.85085,-8.86265 7.20091,-2.99115 15.1773,-2.99115 13.73712,0 23.26448,7.86561 9.63813,7.75482 11.96458,18.27923 h -3.87741 q 2.54801,-7.20091 7.97639,-13.07242 5.42838,-5.9823 13.29398,-9.52736 7.9764,-3.54506 17.8361,-3.54506 10.74597,0 19.4978,4.65289 8.8627,4.6529 14.0695,14.06947 5.3176,9.41657 5.3176,23.81839 v 76.66198 h -18.8331 v -76.66198 q 0,-13.62633 -7.64408,-19.38706 -7.64404,-5.87151 -17.72531,-5.87151 -8.53031,0 -14.73417,3.54506 -6.20386,3.54506 -9.52736,9.74892 -3.32349,6.20386 -3.32349,14.18025 v 74.44632 h -18.83315 v -78.65608 q 0,-10.5244 -7.09012,-16.83905 -6.97934,-6.42542 -17.61453,-6.42542 -7.31169,0 -13.8479,3.43428 -6.42543,3.43428 -10.41362,10.30284 -3.9882,6.75777 -3.9882,16.83904 v 71.34439 z m 238.62707,2.65879 q -17.1714,0 -29.3576,-7.8656 -12.0754,-7.86561 -18.5008,-21.60273 -6.4254,-13.8479 -6.4254,-31.46243 0,-17.83609 6.7578,-31.68399 6.7577,-13.84791 18.7223,-21.71351 11.9646,-7.97639 27.4743,-7.97639 12.1861,0 21.935,4.43132 9.8597,4.43133 16.8391,12.62929 6.9793,8.19796 10.6352,19.49784 3.7666,11.18911 3.7666,24.81544 v 5.20681 h -96.1598 v -16.17435 h 85.6354 l -8.0872,5.64995 q 0,-11.96459 -4.3205,-20.71646 -4.2098,-8.86266 -11.9646,-13.62634 -7.7548,-4.87446 -18.2792,-4.87446 -10.4137,0 -18.1685,4.87446 -7.644,4.76368 -11.9646,13.62634 -4.2097,8.75187 -4.2097,20.71646 v 7.97639 q 0,12.07537 4.0989,21.38116 4.2098,9.30579 12.1862,14.62338 7.9764,5.20681 19.3871,5.20681 8.3087,0 14.6233,-2.54801 6.3147,-2.6588 10.4137,-7.31169 4.2097,-4.6529 5.9822,-10.74598 h 18.8332 q -2.2157,11.18911 -9.195,19.71941 -6.9794,8.41953 -17.5038,13.18321 -10.4136,4.76367 -23.1536,4.76367 z m 73.3384,-2.65879 V 488.66663 h 17.9469 v 18.39002 h 0.4431 q 3.2128,-9.08423 10.1921,-14.62339 6.9793,-5.53916 17.9469,-5.53916 2.548,0 4.6529,0.22157 2.2156,0.22156 3.3235,0.44313 v 18.83315 q -1.1079,-0.33235 -4.3206,-0.77549 -3.1019,-0.55391 -7.2009,-0.55391 -6.4254,0 -11.9646,2.99114 -5.5391,2.99115 -8.8626,9.30579 -3.3235,6.31465 -3.3235,16.28513 v 72.00909 z m 105.2441,1.77253 q -11.6323,0 -20.8273,-3.9882 -9.195,-3.98819 -14.6234,-11.8538 -5.3176,-7.97639 -5.3176,-19.60863 0,-10.08127 3.8775,-16.39591 3.9881,-6.31464 10.5244,-9.85971 6.6469,-3.65584 14.9557,-5.53916 8.4195,-1.88331 17.1714,-2.99114 11.1891,-1.55097 17.6145,-2.32645 6.4254,-0.77548 9.0842,-2.54801 2.7696,-1.77254 2.7696,-6.20386 v -1.10784 q 0,-6.42542 -3.1019,-11.29988 -2.9912,-4.98525 -8.8627,-7.75483 -5.7607,-2.88036 -13.9587,-2.88036 -8.0871,0 -14.4018,2.76958 -6.2038,2.6588 -9.9705,7.31169 -3.6558,4.6529 -4.0989,10.52441 h -19.1655 q 0.5539,-10.74598 6.647,-19.05472 6.093,-8.41952 16.6174,-13.29398 10.5244,-4.87446 24.3723,-4.87446 10.1921,0 18.3901,2.76958 8.3087,2.76958 14.0694,7.86561 5.8715,5.09602 8.9735,12.18615 3.1019,7.09012 3.1019,15.73121 v 80.65018 h -18.6116 v -16.61748 h -0.4431 q -2.1049,4.20976 -6.2039,8.5303 -4.099,4.20976 -11.0783,7.09013 -6.8686,2.76958 -17.5037,2.76958 z m 2.6588,-16.83905 q 11.5214,0 18.7223,-4.09898 7.2009,-4.20976 10.5244,-10.85675 3.3235,-6.64699 3.3235,-14.29103 v -14.62339 q -1.1078,0.99705 -4.099,1.88332 -2.8803,0.88626 -7.2009,1.77253 -4.2097,0.77548 -9.195,1.55096 -4.8744,0.77549 -9.8597,1.44018 -6.7578,0.88627 -12.8508,3.10193 -5.9823,2.10489 -9.749,6.09308 -3.7666,3.87741 -3.7666,10.5244 0,5.42838 2.8804,9.41658 2.9911,3.87741 8.4195,5.98229 5.4284,2.10488 12.8509,2.10488 z"
         id="text1"
         style="font-size:226.884px;line-height:1;font-family:Inter;-inkscape-font-specification:Inter;white-space:pre;fill:#ffffff"
         transform="matrix(1.5044401,0,0.02904573,1.5044401,601.22324,-233.39106)"
         aria-label="camera" /></g></g></svg>
